<svg width="500" height="500" viewBox="0 0 500 500" fill="none" xmlns="http://www.w3.org/2000/svg">
<rect width="500" height="500" rx="80" fill="#FFBB18"/>
<path d="M135.375 422C118.655 422 106.775 417.747 99.7348 409.24C92.9882 400.733 89.6148 391.2 89.6148 380.64C89.6148 363.333 98.1215 344.12 115.135 323C132.148 301.587 158.695 277.68 194.775 251.28L155.615 177.36C150.042 166.8 143.148 156.387 134.935 146.12C126.722 135.56 115.722 127.933 101.935 123.24C113.082 111.8 125.108 103.733 138.015 99.04C150.922 94.3467 162.508 92 172.775 92C186.268 92 197.562 94.2 206.655 98.6C215.748 103 224.402 110.773 232.615 121.92C241.122 133.067 250.655 148.76 261.215 169L279.255 203.32C288.642 192.76 296.122 182.2 301.695 171.64C307.268 160.787 310.055 149.933 310.055 139.08C310.055 134.093 309.615 129.693 308.735 125.88C308.148 121.773 307.122 118.107 305.655 114.88C328.242 99.6267 350.095 92 371.215 92C387.642 92 399.375 96.2533 406.415 104.76C413.455 113.267 416.975 122.8 416.975 133.36C416.975 151.253 408.615 171.053 391.895 192.76C375.468 214.173 348.922 238.373 312.255 265.36L350.535 336.64C356.108 347.2 363.002 357.76 371.215 368.32C379.428 378.587 390.428 386.067 404.215 390.76C393.362 402.2 381.335 410.267 368.135 414.96C355.228 419.653 343.642 422 333.375 422C320.175 422 308.882 419.8 299.495 415.4C290.402 411 281.748 403.227 273.535 392.08C265.322 380.64 255.788 364.947 244.935 345L226.455 310.68C217.362 321.533 210.028 332.387 204.455 343.24C199.175 353.8 196.535 364.36 196.535 374.92C196.535 384.307 197.855 392.373 200.495 399.12C178.202 414.373 156.495 422 135.375 422Z" fill="#131616"/>
</svg>
