<svg width="662" height="200" viewBox="0 0 662 200" fill="none" xmlns="http://www.w3.org/2000/svg">
<path d="M7.808 145V54.12H49.536C53.9733 54.12 58.0693 55.016 61.824 56.808C65.5787 58.6 68.8213 61.032 71.552 64.104C74.2827 67.0907 76.3733 70.4613 77.824 74.216C79.36 77.9707 80.128 81.768 80.128 85.608C80.128 89.1067 79.616 92.4773 78.592 95.72C77.568 98.9627 76.0747 101.949 74.112 104.68C72.1493 107.325 69.8027 109.629 67.072 111.592L86.272 145H58.88L42.88 117.096H32.768V145H7.808ZM32.768 95.336H48.512C49.536 95.336 50.5173 94.952 51.456 94.184C52.3947 93.416 53.1627 92.3067 53.76 90.856C54.4427 89.4053 54.784 87.656 54.784 85.608C54.784 83.4747 54.4 81.7253 53.632 80.36C52.9493 78.9093 52.0533 77.8 50.944 77.032C49.92 76.264 48.896 75.88 47.872 75.88H32.768V95.336ZM123.296 146.28C117.408 146.28 112.16 145.384 107.552 143.592C102.944 141.715 99.0613 139.197 95.904 136.04C92.832 132.883 90.4853 129.256 88.864 125.16C87.2427 121.064 86.432 116.755 86.432 112.232C86.432 105.747 87.84 99.816 90.656 94.44C93.472 88.9787 97.6107 84.6267 103.072 81.384C108.533 78.056 115.275 76.392 123.296 76.392C131.317 76.392 138.059 78.0133 143.52 81.256C148.981 84.4987 153.12 88.7653 155.936 94.056C158.752 99.3467 160.16 105.107 160.16 111.336C160.16 112.616 160.075 113.939 159.904 115.304C159.819 116.584 159.691 117.736 159.52 118.76H112.288C112.459 121.149 113.099 123.112 114.208 124.648C115.403 126.099 116.853 127.165 118.56 127.848C120.352 128.531 122.187 128.872 124.064 128.872C126.709 128.872 129.184 128.275 131.488 127.08C133.877 125.885 135.456 124.221 136.224 122.088L156.832 127.976C155.04 131.56 152.523 134.717 149.28 137.448C146.123 140.179 142.368 142.355 138.016 143.976C133.664 145.512 128.757 146.28 123.296 146.28ZM111.776 104.168H134.048C133.792 101.949 133.152 100.072 132.128 98.536C131.189 97 129.909 95.8053 128.288 94.952C126.752 94.0987 124.96 93.672 122.912 93.672C120.864 93.672 119.029 94.0987 117.408 94.952C115.872 95.8053 114.592 97 113.568 98.536C112.629 100.072 112.032 101.949 111.776 104.168ZM195.152 146.28C189.264 146.28 183.461 145.341 177.744 143.464C172.112 141.501 167.333 138.685 163.408 135.016L171.728 120.04C175.909 122.771 179.92 124.904 183.76 126.44C187.685 127.976 191.227 128.744 194.384 128.744C196.176 128.744 197.499 128.531 198.352 128.104C199.205 127.592 199.632 126.781 199.632 125.672C199.632 124.904 199.333 124.264 198.736 123.752C198.139 123.24 197.157 122.728 195.792 122.216C194.512 121.704 192.848 121.149 190.8 120.552C185.509 118.675 181.072 116.925 177.488 115.304C173.989 113.683 171.344 111.72 169.552 109.416C167.845 107.027 166.992 103.869 166.992 99.944C166.992 95.336 168.144 91.2827 170.448 87.784C172.752 84.2 176.037 81.384 180.304 79.336C184.656 77.288 189.861 76.264 195.92 76.264C200.443 76.264 204.965 76.9893 209.488 78.44C214.096 79.8053 218.533 82.3227 222.8 85.992L213.584 100.84C209.317 98.1947 205.691 96.3173 202.704 95.208C199.803 94.0987 197.2 93.544 194.896 93.544C193.787 93.544 192.805 93.672 191.952 93.928C191.184 94.184 190.587 94.568 190.16 95.08C189.733 95.592 189.52 96.2747 189.52 97.128C189.52 97.9813 189.819 98.7067 190.416 99.304C191.013 99.816 191.952 100.328 193.232 100.84C194.512 101.267 196.133 101.779 198.096 102.376C203.899 104.083 208.635 105.832 212.304 107.624C215.973 109.331 218.661 111.421 220.368 113.896C222.16 116.371 223.056 119.613 223.056 123.624C223.056 130.707 220.539 136.253 215.504 140.264C210.555 144.275 203.771 146.28 195.152 146.28ZM231.629 121.96V77.672H255.949V116.456C255.949 119.357 256.589 121.661 257.869 123.368C259.234 124.989 261.069 125.8 263.373 125.8C264.653 125.8 265.933 125.629 267.213 125.288C268.493 124.947 269.773 124.264 271.053 123.24C272.418 122.216 273.741 120.765 275.021 118.888V77.672H299.341V118.12C299.341 120.424 299.682 122.045 300.365 122.984C301.048 123.837 302.242 124.349 303.949 124.52V145C301.816 145.427 299.896 145.725 298.189 145.896C296.482 146.152 294.989 146.28 293.709 146.28C289.613 146.28 286.37 145.512 283.981 143.976C281.592 142.44 280.056 140.093 279.373 136.936L278.861 134.504C275.704 138.685 271.906 141.715 267.469 143.592C263.117 145.384 258.168 146.28 252.621 146.28C245.88 146.28 240.674 144.189 237.005 140.008C233.421 135.827 231.629 129.811 231.629 121.96ZM422.438 145H398.118V107.112C398.118 103.784 397.435 101.395 396.07 99.944C394.79 98.408 393.211 97.64 391.334 97.64C389.457 97.64 387.409 98.536 385.19 100.328C382.971 102.12 381.35 104.424 380.326 107.24V145H356.006V107.112C356.006 103.784 355.323 101.395 353.958 99.944C352.678 98.408 351.099 97.64 349.222 97.64C347.345 97.64 345.297 98.536 343.078 100.328C340.859 102.12 339.238 104.424 338.214 107.24V145H313.894V77.672H335.782V87.656C338.171 83.9867 341.457 81.2133 345.638 79.336C349.819 77.3733 354.769 76.392 360.486 76.392C366.033 76.392 370.214 77.5867 373.03 79.976C375.846 82.3653 377.723 85.0533 378.662 88.04C381.051 84.3707 384.337 81.512 388.518 79.464C392.699 77.416 397.393 76.392 402.598 76.392C407.035 76.392 410.577 77.2027 413.222 78.824C415.867 80.4453 417.83 82.536 419.11 85.096C420.475 87.656 421.371 90.344 421.798 93.16C422.225 95.8907 422.438 98.408 422.438 100.712V145ZM467.421 146.28C461.533 146.28 456.285 145.384 451.677 143.592C447.069 141.715 443.186 139.197 440.029 136.04C436.957 132.883 434.61 129.256 432.989 125.16C431.368 121.064 430.557 116.755 430.557 112.232C430.557 105.747 431.965 99.816 434.781 94.44C437.597 88.9787 441.736 84.6267 447.197 81.384C452.658 78.056 459.4 76.392 467.421 76.392C475.442 76.392 482.184 78.0133 487.645 81.256C493.106 84.4987 497.245 88.7653 500.061 94.056C502.877 99.3467 504.285 105.107 504.285 111.336C504.285 112.616 504.2 113.939 504.029 115.304C503.944 116.584 503.816 117.736 503.645 118.76H456.413C456.584 121.149 457.224 123.112 458.333 124.648C459.528 126.099 460.978 127.165 462.685 127.848C464.477 128.531 466.312 128.872 468.189 128.872C470.834 128.872 473.309 128.275 475.613 127.08C478.002 125.885 479.581 124.221 480.349 122.088L500.957 127.976C499.165 131.56 496.648 134.717 493.405 137.448C490.248 140.179 486.493 142.355 482.141 143.976C477.789 145.512 472.882 146.28 467.421 146.28ZM455.901 104.168H478.173C477.917 101.949 477.277 100.072 476.253 98.536C475.314 97 474.034 95.8053 472.413 94.952C470.877 94.0987 469.085 93.672 467.037 93.672C464.989 93.672 463.154 94.0987 461.533 94.952C459.997 95.8053 458.717 97 457.693 98.536C456.754 100.072 456.157 101.949 455.901 104.168Z" fill="white"/>
<rect x="524" y="31" width="138" height="138" rx="8" fill="#FFBE1A"/>
<path d="M559.655 150.2C554.791 150.2 551.335 148.963 549.286 146.488C547.324 144.013 546.343 141.24 546.343 138.168C546.343 133.133 548.817 127.544 553.767 121.4C558.716 115.171 566.439 108.216 576.935 100.536L565.543 79.032C563.921 75.96 561.916 72.9307 559.527 69.944C557.137 66.872 553.937 64.6533 549.927 63.288C553.169 59.96 556.668 57.6133 560.423 56.248C564.177 54.8827 567.548 54.2 570.535 54.2C574.46 54.2 577.745 54.84 580.391 56.12C583.036 57.4 585.553 59.6613 587.943 62.904C590.417 66.1467 593.191 70.712 596.263 76.6L601.511 86.584C604.241 83.512 606.417 80.44 608.039 77.368C609.66 74.2107 610.471 71.0533 610.471 67.896C610.471 66.4453 610.343 65.1653 610.087 64.056C609.916 62.8613 609.617 61.7947 609.191 60.856C615.761 56.4187 622.119 54.2 628.263 54.2C633.041 54.2 636.455 55.4373 638.503 57.912C640.551 60.3867 641.575 63.16 641.575 66.232C641.575 71.4373 639.143 77.1973 634.279 83.512C629.5 89.7413 621.777 96.7813 611.111 104.632L622.247 125.368C623.868 128.44 625.873 131.512 628.263 134.584C630.652 137.571 633.852 139.747 637.863 141.112C634.705 144.44 631.207 146.787 627.367 148.152C623.612 149.517 620.241 150.2 617.255 150.2C613.415 150.2 610.129 149.56 607.399 148.28C604.753 147 602.236 144.739 599.847 141.496C597.457 138.168 594.684 133.603 591.527 127.8L586.151 117.816C583.505 120.973 581.372 124.131 579.751 127.288C578.215 130.36 577.447 133.432 577.447 136.504C577.447 139.235 577.831 141.581 578.599 143.544C572.113 147.981 565.799 150.2 559.655 150.2Z" fill="#131616"/>
</svg>
